<svg xmlns="http://www.w3.org/2000/svg" width="1132" height="396" viewBox="34 86 1132 396"><defs><radialGradient id="glow-cyan-bg" cx="8%" cy="8%" r="50%" fx="8%" fy="8%"><stop offset="0%" stop-color="#43e6db" stop-opacity=".2"/><stop offset="60%" stop-color="#43e6db" stop-opacity="0"/></radialGradient><radialGradient id="glow-green-bg" cx="95%" cy="10%" r="45%" fx="95%" fy="10%"><stop offset="0%" stop-color="#93ff78" stop-opacity=".1"/><stop offset="62%" stop-color="#93ff78" stop-opacity="0"/></radialGradient><radialGradient id="gw-glow1" cx="12%" cy="8%" r="55%"><stop offset="0%" stop-color="#00e5ff" stop-opacity=".2"/><stop offset="45%" stop-color="#07f" stop-opacity=".1"/><stop offset="100%" stop-color="#07f" stop-opacity="0"/></radialGradient><radialGradient id="gw-glow2" cx="85%" cy="12%" r="50%"><stop offset="0%" stop-color="#64ffda" stop-opacity=".2"/><stop offset="40%" stop-color="#1de9b6" stop-opacity=".1"/><stop offset="100%" stop-color="#1de9b6" stop-opacity="0"/></radialGradient><radialGradient id="gw-glow3" cx="50%" cy="95%" r="55%"><stop offset="0%" stop-color="#7c4dff" stop-opacity=".2"/><stop offset="45%" stop-color="#651fff" stop-opacity=".1"/><stop offset="100%" stop-color="#536dfe" stop-opacity="0"/></radialGradient><radialGradient id="gw-glow4" cx="40%" cy="50%" r="60%"><stop offset="0%" stop-color="#18ffff" stop-opacity=".1"/><stop offset="35%" stop-color="#40c4ff" stop-opacity="0"/><stop offset="100%" stop-color="#40c4ff" stop-opacity="0"/></radialGradient><filter id="glow-green-wire" width="160%" height="160%" x="-30%" y="-30%"><feGaussianBlur in="SourceGraphic" result="blur" stdDeviation="4.5"/><feMerge><feMergeNode in="blur"/><feMergeNode in="SourceGraphic"/></feMerge></filter><filter id="glow-cyan-wire" width="160%" height="160%" x="-30%" y="-30%"><feGaussianBlur in="SourceGraphic" result="blur" stdDeviation="4"/><feMerge><feMergeNode in="blur"/><feMergeNode in="SourceGraphic"/></feMerge></filter><filter id="gw-outer-shadow" width="116%" height="116%" x="-8%" y="-8%"><feGaussianBlur in="SourceAlpha" result="blur" stdDeviation="9"/><feFlood flood-color="#4c7ac4" flood-opacity=".1" result="color"/><feComposite in="color" in2="blur" operator="in" result="shadow"/><feMerge><feMergeNode in="shadow"/><feMergeNode in="SourceGraphic"/></feMerge></filter><filter id="title-glow" width="130%" height="180%" x="-15%" y="-40%"><feGaussianBlur in="SourceAlpha" result="blur" stdDeviation="7"/><feFlood flood-color="#ff8f5c" flood-opacity=".5" result="color"/><feComposite in="color" in2="blur" operator="in" result="glow"/><feMerge><feMergeNode in="glow"/><feMergeNode in="SourceGraphic"/></feMerge></filter><filter id="rust-glow" width="160%" height="160%" x="-30%" y="-30%"><feGaussianBlur in="SourceAlpha" result="blur" stdDeviation="3"/><feFlood flood-color="#dea584" flood-opacity=".3" result="color"/><feComposite in="color" in2="blur" operator="in" result="glow"/><feMerge><feMergeNode in="glow"/><feMergeNode in="SourceGraphic"/></feMerge></filter><linearGradient id="bg-grad" x1="0%" x2="65%" y1="0%" y2="100%"><stop offset="0%" stop-color="#05070f"/><stop offset="45%" stop-color="#0b1020"/><stop offset="100%" stop-color="#10192f"/></linearGradient><linearGradient id="card-grad" x1="0%" x2="80%" y1="0%" y2="100%"><stop offset="0%" stop-color="#131e37"/><stop offset="100%" stop-color="#0e1425"/></linearGradient><linearGradient id="gw-grad" x1="10%" x2="90%" y1="0%" y2="100%"><stop offset="0%" stop-color="#070d1e"/><stop offset="48%" stop-color="#080c18"/><stop offset="100%" stop-color="#050913"/></linearGradient><linearGradient id="mod-grad" x1="0%" x2="100%" y1="0%" y2="100%"><stop offset="0%" stop-color="#112240"/><stop offset="100%" stop-color="#112240"/></linearGradient><pattern id="gw-dots" width="14" height="14" x="0" y="0" patternUnits="userSpaceOnUse"><circle cx="1" cy="1" r=".8" fill="#ebf6ff" opacity=".1"/></pattern><pattern id="gw-dots2" width="21" height="21" x="8" y="12" patternUnits="userSpaceOnUse"><circle cx="1" cy="1" r=".7" fill="#abdcff" opacity=".1"/></pattern><marker id="arrow-left" markerHeight="7" markerWidth="7" orient="auto" refX="5.6" refY="2.5"><path fill="#93ff78" d="m0 0 6.3 2.5L0 4.9z"/></marker><marker id="arrow-right" markerHeight="7" markerWidth="7" orient="auto" refX="5.6" refY="2.5"><path fill="#43e6db" d="m0 0 6.3 2.5L0 4.9z"/></marker><clipPath id="gw-clip"><rect width="460" height="346" x="370" y="117" rx="20"/></clipPath></defs><style>@keyframes dash{to{stroke-dashoffset:-200}}.wire{fill:none;stroke-linecap:round;stroke-width:1.8;stroke-dasharray:8 8;animation:dash 7s linear infinite}.lbl,.mod-lbl,.sec-title{font-family:&quot;Segoe UI&quot;,&quot;PingFang SC&quot;,&quot;Microsoft YaHei&quot;,system-ui,sans-serif;font-weight:600}.lbl{letter-spacing:.03em}.mod-lbl,.sec-title{font-size:14px}.sec-title{letter-spacing:.1em;fill:#c8f6ff}.mod-lbl{letter-spacing:.02em;fill:#d0ecff}.i-src{fill:none;stroke:#ebfbff;stroke-width:1.8;stroke-linecap:round;stroke-linejoin:round}.i-mdl{fill:#f5fdff;stroke:none}</style><path fill="url(#bg-grad)" d="M0 0h1200v500H0z"/><path fill="url(#glow-cyan-bg)" d="M0 0h1200v500H0z"/><path fill="url(#glow-green-bg)" d="M0 0h1200v500H0z"/><path stroke="#93ff78" marker-end="url(#arrow-left)" d="M243 228c55 0 62 30 127 62" class="wire" filter="url(#glow-green-wire)"/><path stroke="#93ff78" marker-end="url(#arrow-left)" d="M243 294c55 0 62-2 127-4" class="wire" filter="url(#glow-green-wire)"/><path stroke="#93ff78" marker-end="url(#arrow-left)" d="M243 360c55 0 62-35 127-70" class="wire" filter="url(#glow-green-wire)"/><path stroke="#43e6db" marker-end="url(#arrow-right)" d="M830 290c70-26 53-65 127-98" class="wire" filter="url(#glow-cyan-wire)"/><path stroke="#43e6db" marker-end="url(#arrow-right)" d="M830 290c70-8 53-19 127-32" class="wire" filter="url(#glow-cyan-wire)"/><path stroke="#43e6db" marker-end="url(#arrow-right)" d="M830 290c70 9 53 22 127 34" class="wire" filter="url(#glow-cyan-wire)"/><path stroke="#43e6db" marker-end="url(#arrow-right)" d="M830 290c70 25 53 63 127 100" class="wire" filter="url(#glow-cyan-wire)"/><text x="148" y="173" class="sec-title" font-size="25" text-anchor="middle">SOURCES</text><rect width="190" height="54" x="53" y="201" fill="url(#card-grad)" stroke="#43e6db" stroke-opacity=".2" rx="16"/><svg width="20" height="20" x="65" y="218" overflow="visible" viewBox="0 0 24 24"><rect width="18" height="12" x="3" y="4" class="i-src" rx="2"/><path d="M8 20h8m-4-4v4" class="i-src"/></svg><text x="93" y="233" fill="#e9f2ff" class="lbl" font-size="14">Web App</text><rect width="190" height="54" x="53" y="267" fill="url(#card-grad)" stroke="#43e6db" stroke-opacity=".2" rx="16"/><svg width="20" height="20" x="65" y="284" overflow="visible" viewBox="0 0 24 24"><rect width="10" height="19" x="7" y="2.5" class="i-src" rx="2"/><circle cx="12" cy="17.5" r=".9" fill="#ebfbff" stroke="#ebfbff"/></svg><text x="93" y="299" fill="#e9f2ff" class="lbl" font-size="14">Mobile</text><rect width="190" height="54" x="53" y="333" fill="url(#card-grad)" stroke="#43e6db" stroke-opacity=".2" rx="16"/><svg width="20" height="20" x="65" y="350" overflow="visible" viewBox="0 0 24 24"><rect width="14" height="11" x="5" y="8" class="i-src" rx="2"/><path d="M12 4v3m-3 9h6" class="i-src"/></svg><text x="93" y="365" fill="#e9f2ff" class="lbl" font-size="14">AI Agent</text><g filter="url(#gw-outer-shadow)"><rect width="460" height="346" x="370" y="117" fill="url(#gw-grad)" stroke="#6e92c3" stroke-opacity=".3" rx="20"/></g><g clip-path="url(#gw-clip)"><path fill="url(#gw-glow1)" d="M370 117h460v346H370z"/><path fill="url(#gw-glow2)" d="M370 117h460v346H370z"/><path fill="url(#gw-glow3)" d="M370 117h460v346H370z"/><path fill="url(#gw-glow4)" d="M370 117h460v346H370z"/><path fill="url(#gw-dots)" d="M370 117h460v346H370z"/><path fill="url(#gw-dots2)" d="M370 117h460v346H370z"/></g><svg width="20" height="20" x="798" y="129" filter="url(#rust-glow)" viewBox="0 0 24 24"><path fill="#dea584" d="m23.8 11.7-1-.6v-.3l.9-.8a.3.3 0 0 0-.2-.6l-1-.4-.1-.3.6-1a.3.3 0 0 0-.2-.5L21.7 7l-.2-.3.5-1v-.4l-.3-.1h-1.2l-.2-.2.3-1.2a.3.3 0 0 0-.4-.4l-1.2.3-.2-.2V2.3a.3.3 0 0 0-.5-.3l-1 .5-.3-.2-.2-1.1a.3.3 0 0 0-.5-.2l-1 .6H15L14.6.5a.3.3 0 0 0-.6-.2l-.8.9H13l-.6-1a.3.3 0 0 0-.6 0l-.6 1h-.3L10 .3a.3.3 0 0 0-.6.2l-.4 1-.3.1-1-.6a.3.3 0 0 0-.5.2L7 2.3l-.3.2-1-.5a.3.3 0 0 0-.5.3v1.2l-.2.2-1.2-.3a.3.3 0 0 0-.4.4L3.7 5l-.2.2H2.3a.3.3 0 0 0-.3.5l.5 1-.2.3-1.1.2a.3.3 0 0 0-.2.5l.6 1V9l-1.1.4a.3.3 0 0 0-.2.6l.9.8v.3l-1 .6a.3.3 0 0 0 0 .6l1 .6v.3l-.9.8a.3.3 0 0 0 .2.6l1 .4.1.3-.6 1a.3.3 0 0 0 .2.5l1.1.2.2.3-.5 1a.3.3 0 0 0 .3.5h1.2l.2.2-.3 1.2a.3.3 0 0 0 .4.4l1.2-.3.2.2v1.2a.3.3 0 0 0 .5.3l1-.5.3.1.2 1.2a.3.3 0 0 0 .5.2l1-.6H9l.4 1.1a.3.3 0 0 0 .6.2l.8-.9h.3l.6 1a.3.3 0 0 0 .6 0l.6-1h.3l.8.9a.3.3 0 0 0 .6-.2l.4-1 .3-.1 1 .6a.3.3 0 0 0 .5-.2l.2-1.1.3-.2 1 .5a.3.3 0 0 0 .5-.3v-1.2l.2-.2 1.2.3a.3.3 0 0 0 .4-.4l-.3-1.2.2-.2h1.2a.3.3 0 0 0 .3-.5l-.5-1q0-.2.2-.3l1.1-.2a.3.3 0 0 0 .2-.5l-.6-1V15l1.1-.4a.3.3 0 0 0 .2-.6l-.9-.8V13l1-.6a.3.3 0 0 0 0-.6m-6.7 8.4a.7.7 0 0 1 .3-1.4.7.7 0 1 1-.3 1.4m-.3-2.4a1 1 0 0 0-.8.5l-.4 1.7a9 9 0 0 1-3.6.8 9 9 0 0 1-3.7-.8L8 18.2l-.7-.5-1.5.3-.8-.9h7.3v-2.6H10v-1.7h2.3c.2 0 1 0 1.4 1.2l.3 2c.1.4.7 1.2 1.3 1.2H19l-.8 1zM6.8 20a.7.7 0 1 1-.3-1.4.7.7 0 0 1 .3 1.4M4.1 9a.7.7 0 1 1-1.3.6.7.7 0 0 1 1.3-.6m-.8 2 1.5-.7a1 1 0 0 0 .3-.9l-.3-.7h1.3v5.6H3.6a9 9 0 0 1-.3-3.3m6.7-.6V8.8h3c.1 0 1 .2 1 .9 0 .5-.7.7-1.2.7zM20.8 12v.7h-1v.5q-.2 1.3-1.1 1.3t-1-.5c-.3-1.5-.8-1.8-1.5-2.4Q18 10.6 18 9c0-1.2-.8-2-1.3-2.3a4 4 0 0 0-2-.6H5.6a9 9 0 0 1 4.9-2.8l1 1.2a1 1 0 0 0 1 0l1.2-1.2a9 9 0 0 1 6 4.3l-.8 1.9.3.8 1.6.7zm-9.3-9.6a.7.7 0 1 1 1 1 .7.7 0 0 1-1-1M19.8 9a1 1 0 0 1 1-.3.7.7 0 1 1-1 .3" opacity=".9"/></svg><svg width="22" height="22" x="388" y="134" overflow="visible" viewBox="0 0 24 24"><path d="m12 3 7 3v5c0 5-3.3 8.6-7 10-3.7-1.4-7-5-7-10V6z" class="i-src"/><path d="m9 12 2 2 4-4" class="i-src"/></svg><text x="418" y="153" filter="url(#title-glow)" style="font-family:&quot;Orbitron&quot;,&quot;Segoe UI&quot;,system-ui,sans-serif;font-size:24px;font-weight:600;letter-spacing:.08em;fill:#ffd7bf">AISIX Gateway</text><rect width="206" height="52" x="388" y="201" fill="url(#mod-grad)" stroke="#80d8ff" stroke-opacity=".2" rx="13"/><text x="400" y="232" class="mod-lbl">Authentication</text><rect width="206" height="52" x="606" y="201" fill="url(#mod-grad)" stroke="#80d8ff" stroke-opacity=".2" rx="13"/><text x="618" y="232" class="mod-lbl">Rate Limiting</text><rect width="206" height="52" x="388" y="265" fill="url(#mod-grad)" stroke="#80d8ff" stroke-opacity=".2" rx="13"/><text x="400" y="296" class="mod-lbl">Model Access</text><rect width="206" height="52" x="606" y="265" fill="url(#mod-grad)" stroke="#80d8ff" stroke-opacity=".2" rx="13"/><text x="618" y="296" class="mod-lbl">Load Balancing</text><rect width="206" height="52" x="388" y="329" fill="url(#mod-grad)" stroke="#80d8ff" stroke-opacity=".2" rx="13"/><text x="400" y="360" class="mod-lbl">Guardrails</text><rect width="206" height="52" x="606" y="329" fill="url(#mod-grad)" stroke="#80d8ff" stroke-opacity=".2" rx="13"/><text x="618" y="360" class="mod-lbl">Metrics</text><rect width="206" height="52" x="388" y="393" fill="url(#mod-grad)" stroke="#80d8ff" stroke-opacity=".2" rx="13"/><text x="400" y="424" class="mod-lbl">Prompt Management</text><rect width="206" height="52" x="606" y="393" fill="url(#mod-grad)" stroke="#80d8ff" stroke-opacity=".2" rx="13"/><text x="618" y="424" class="mod-lbl">Logging and Tracing</text><text x="1052" y="137" class="sec-title" font-size="25" text-anchor="middle">AI MODELS</text><rect width="190" height="54" x="957" y="165" fill="url(#card-grad)" stroke="#43e6db" stroke-opacity=".2" rx="16"/><svg width="20" height="20" x="969" y="182" viewBox="0 0 24 24"><path d="M22.3 9.8a6 6 0 0 0-.5-4.9A6 6 0 0 0 15.3 2 6 6 0 0 0 5 4.2 6 6 0 0 0 1 7a6 6 0 0 0 .7 7 6 6 0 0 0 .5 5 6 6 0 0 0 6.6 3 6 6 0 0 0 4.5 2 6 6 0 0 0 5.7-4.2 6 6 0 0 0 4-3 6 6 0 0 0-.7-7m-9 12.6a5 5 0 0 1-3-1h.2l4.8-2.8.4-.7V11l2 1.2V18a4.5 4.5 0 0 1-4.4 4.5m-9.7-4.1a5 5 0 0 1-.5-3h.1L8 18.2h.8l5.8-3.3V17l-4.9 3a4.5 4.5 0 0 1-6.1-1.6M2.3 7.9a5 5 0 0 1 2.4-2v5.7l.4.7 5.8 3.3-2 1.2-5-2.8a4.5 4.5 0 0 1-1.5-6zM19 11.8l-5.8-3.4 2-1.2 5 2.8a4.5 4.5 0 0 1-.8 8.1v-5.7zm2-3v-.2L16 6h-.8L9.4 9.2V7l4.9-3a4.5 4.5 0 0 1 6.6 4.7zm-12.6 4-2-1.1V6a4.5 4.5 0 0 1 7.3-3.5l-.1.1-4.8 2.8-.4.6zm1.1-2.3L12 9l2.6 1.5v3L12 15l-2.6-1.5Z" class="i-mdl"/></svg><text x="997" y="197" fill="#e9f2ff" class="lbl" font-size="14">OpenAI</text><rect width="190" height="54" x="957" y="231" fill="url(#card-grad)" stroke="#43e6db" stroke-opacity=".2" rx="16"/><svg width="20" height="20" x="969" y="248" viewBox="0 0 24 24"><path d="M17.3 3.5h-3.7l6.7 17H24Zm-10.6 0L0 20.5h3.7l1.4-3.6h7l1.4 3.6h3.7l-6.7-17Zm-.4 10.3 2.3-6 2.3 6Z" class="i-mdl"/></svg><text x="997" y="263" fill="#e9f2ff" class="lbl" font-size="14">Claude (Anthropic)</text><rect width="190" height="54" x="957" y="297" fill="url(#card-grad)" stroke="#43e6db" stroke-opacity=".2" rx="16"/><svg width="20" height="20" x="969" y="314" viewBox="0 0 24 24"><path d="M11 19.3q1 2.2 1 4.7 0-2.5 1-4.7t2.5-3.8 3.8-2.5 4.7-1q-2.5 0-4.7-1a12 12 0 0 1-3.8-2.5A12 12 0 0 1 13 4.7Q12 2.5 12 0q0 2.5-1 4.7T8.5 8.5A12 12 0 0 1 4.7 11Q2.5 12 0 12q2.5 0 4.7 1t3.8 2.5 2.5 3.8" class="i-mdl"/></svg><text x="997" y="329" fill="#e9f2ff" class="lbl" font-size="14">Gemini (Google)</text><rect width="190" height="54" x="957" y="363" fill="url(#card-grad)" stroke="#43e6db" stroke-opacity=".2" rx="16"/><svg width="20" height="20" x="969" y="380" viewBox="0 0 56.2 41.4"><path d="M55.6 3.5c-.6-.3-.8.2-1.2.5l-.3.3Q52.8 6 50.9 5.8q-3-.2-5 2-.6-2.7-3-3.6-1.3-.5-2.2-1.6-.5-.8-.8-1.8 0-.5-.6-.8-.7 0-.9.7-1 2-1 4.3.1 5 4.3 8 .5.1.3.7l-.6 2q-.1.5-.8.2a13 13 0 0 1-4-2.7q-2.8-3.1-6.1-5.8l-1.6-1c-2.3-2.3.3-4.2.9-4.4S30 1 28 1s-4 .7-6.3 1.6l-1.1.3a23 23 0 0 0-6.8-.2q-6.6.8-10.5 6.1a18 18 0 0 0-3 14.3q1.5 8 8 13.2a21 21 0 0 0 15 5c3.5-.2 7.3-.6 11.7-4.3 1.1.5 2.2.7 4.2.9q2.2.1 4-.3c1.7-.4 1.6-2 1-2.3-5.1-2.3-4-1.4-5-2.1 2.6-3 6.4-6.2 8-16.4v-2q-.1-.6.5-.6 1.9-.2 3.6-1.1c3.3-1.8 4.6-4.7 4.9-8.3q.1-.8-.6-1.3M27.1 35c-4.9-3.8-7.2-5-8.2-5s-.8 1-.6 1.8q.3.8.9 1.7.6.7-.3 1.4c-1.5 1-4.3-.3-4.4-.4a20 20 0 0 1-7.7-7.7 24 24 0 0 1-3-10.5q-.2-1.4 1-1.4a11 11 0 0 1 3.6-.1Q16 16 21.2 21.4q2.9 3.1 5.2 6.8a33 33 0 0 0 7.9 8.4c-1.9.2-5 .2-7.2-1.5m2.4-15a.7.7 0 0 1 1-.7l.2.1.2.5q0 .7-.7.8a1 1 0 0 1-.7-.8m7.2 3.8-1.3.4a3 3 0 0 1-2-.6c-.5-.6-1-.9-1.2-1.8v-1.4q.3-1-.5-1.7-.7-.5-1.6-.5l-.6-.1q-.5-.3-.3-.9l.5-.5q1.3-.5 2.6 0 1.2.6 2.4 1.9c.9 1 1 1.3 1.6 2.1l1 2q.3.8-.6 1" class="i-mdl"/></svg><text x="997" y="395" fill="#e9f2ff" class="lbl" font-size="14">DeepSeek</text></svg>